<?xml version="1.0" encoding="utf-8"?>
<!-- Generator: Adobe Illustrator 22.0.0, SVG Export Plug-In . SVG Version: 6.00 Build 0)  -->
<svg version="1.1" id="图层_1" xmlns="http://www.w3.org/2000/svg" xmlns:xlink="http://www.w3.org/1999/xlink" x="0px" y="0px"
	 viewBox="0 0 200 200" style="enable-background:new 0 0 200 200;" xml:space="preserve">
<style type="text/css">
	.st0{fill:#999999;}
</style>
<path class="st0" d="M132.5,80.8L126,85c-5.7-7.5-13.4-11.3-23.3-11.3c-7.8,0-14.3,2.5-19.5,7.5c-5.3,5-7.9,11.1-7.9,18.5
	c0,7.4,2.6,13.7,7.8,18.9c5.2,5.3,11.7,7.9,19.7,7.9c9.5,0,17.2-3.8,23.3-11.3l6.6,4.4c-3.2,4.7-7.6,8.3-13,10.8
	c-5.5,2.5-11.3,3.8-17.7,3.8c-10,0-18.3-3.3-24.9-9.8c-6.7-6.6-10-14.5-10-23.9c0-9.5,3.4-17.7,10.1-24.5c6.8-6.8,15.4-10.1,26-10.1
	c6.2,0,12,1.3,17.3,4C125.6,72.5,129.7,76.1,132.5,80.8z M99.7,37.6c-34.5,0-62.4,27.9-62.4,62.4c0,34.5,27.9,62.4,62.4,62.4
	c34.5,0,62.4-27.9,62.4-62.4C162.1,65.5,134.2,37.6,99.7,37.6z M99.7,152.8c-29.2,0-52.9-23.7-52.9-52.9c0-29.2,23.7-52.9,52.9-52.9
	c29.2,0,52.9,23.7,52.9,52.9C152.6,129.1,128.9,152.8,99.7,152.8z"/>
</svg>
