<svg id="Deep" xmlns="http://www.w3.org/2000/svg" width="77" height="82" viewBox="0 0 77 82">
  <metadata><?xpacket begin="﻿" id="W5M0MpCehiHzreSzNTczkc9d"?>
<x:xmpmeta xmlns:x="adobe:ns:meta/" x:xmptk="Adobe XMP Core 5.6-c140 79.160451, 2017/05/06-01:08:21        ">
   <rdf:RDF xmlns:rdf="http://www.w3.org/1999/02/22-rdf-syntax-ns#">
      <rdf:Description rdf:about=""/>
   </rdf:RDF>
</x:xmpmeta>
                                                                                                    
                                                                                                    
                                                                                                    
                                                                                                    
                                                                                                    
                                                                                                    
                                                                                                    
                                                                                                    
                                                                                                    
                                                                                                    
                                                                                                    
                                                                                                    
                                                                                                    
                                                                                                    
                                                                                                    
                                                                                                    
                                                                                                    
                                                                                                    
                                                                                                    
                                                                                                    
                           
<?xpacket end="w"?></metadata>
<defs>
    <style>
      .cls-1, .cls-2, .cls-3 {
        fill: none;
        stroke-width: 2px;
        fill-rule: evenodd;
      }

      .cls-1, .cls-2 {
        stroke: #962862;
      }

      .cls-2 {
        stroke-linecap: round;
      }

      .cls-3 {
        stroke: #911d5a;
      }
    </style>
  </defs>
  <path id="椭圆_11" data-name="椭圆 11" class="cls-1" d="M984.025,6299.7a39.847,39.847,0,0,1-67.716,41.87m-2.318-41.43a39.714,39.714,0,0,1,53.884-16.42,40.157,40.157,0,0,1,8.263,5.88" transform="translate(-913 -6278)"/>
  <path id="形状_6" data-name="形状 6" class="cls-2" d="M975.46,6287.06l1.231,3.77-3.91-.15" transform="translate(-913 -6278)"/>
  <path id="形状_6_拷贝" data-name="形状 6 拷贝" class="cls-2" d="M920.052,6342.07l-3.763-1.22,0.127,3.87" transform="translate(-913 -6278)"/>
  <path id="形状_13" data-name="形状 13" class="cls-3" d="M940.659,6340.94a72.716,72.716,0,0,0,0-11.6,19.656,19.656,0,0,1-6.346-17.63c1.315-7.68,7.825-15.44,16.772-15.31,7.681,0.1,14.655,6,16.318,14.38,0,0-1.651,6.17.907,9.74s1.34,5.49-.907,6.5-1.36,2.78-1.36,2.78,0.016,0.59.454,4.64-7.706,2.79-7.706,2.79a4.21,4.21,0,0,0-1.813,5.1" transform="translate(-913 -6278)"/>
</svg>
