<svg id="金融" xmlns="http://www.w3.org/2000/svg" width="133" height="134.34" viewBox="0 0 133 134.34">
  <metadata><?xpacket begin="﻿" id="W5M0MpCehiHzreSzNTczkc9d"?>
<x:xmpmeta xmlns:x="adobe:ns:meta/" x:xmptk="Adobe XMP Core 5.6-c140 79.160451, 2017/05/06-01:08:21        ">
   <rdf:RDF xmlns:rdf="http://www.w3.org/1999/02/22-rdf-syntax-ns#">
      <rdf:Description rdf:about=""/>
   </rdf:RDF>
</x:xmpmeta>
                                                                                                    
                                                                                                    
                                                                                                    
                                                                                                    
                                                                                                    
                                                                                                    
                                                                                                    
                                                                                                    
                                                                                                    
                                                                                                    
                                                                                                    
                                                                                                    
                                                                                                    
                                                                                                    
                                                                                                    
                                                                                                    
                                                                                                    
                                                                                                    
                                                                                                    
                                                                                                    
                           
<?xpacket end="w"?></metadata>
<defs>
    <style>
      .cls-1, .cls-2 {
        fill: none;
        stroke: #962862;
        stroke-width: 2px;
      }

      .cls-1, .cls-2, .cls-3 {
        fill-rule: evenodd;
      }

      .cls-2 {
        stroke-linecap: round;
      }

      .cls-3 {
        fill: #962862;
      }
    </style>
  </defs>
  <path id="椭圆_11" data-name="椭圆 11" class="cls-1" d="M445.208,6148.84a65.41,65.41,0,0,1-65.971,112.78m-16.524-12.24a65.439,65.439,0,0,1,63.291-109" transform="translate(-343 -6135.66)"/>
  <path id="形状_6" data-name="形状 6" class="cls-2" d="M423.387,6136.67l4.068,5.07-6.1,2.03" transform="translate(-343 -6135.66)"/>
  <path id="形状_6_拷贝" data-name="形状 6 拷贝" class="cls-2" d="M385.974,6260.25l-6.5-.11,2.052,5.99" transform="translate(-343 -6135.66)"/>
  <g id="组_6" data-name="组 6">
    <path id="圆角矩形_5" data-name="圆角矩形 5" class="cls-3" d="M390.493,6192.47h38.693a1.015,1.015,0,1,1,0,2.03H390.493A1.015,1.015,0,1,1,390.493,6192.47Z" transform="translate(-343 -6135.66)"/>
    <path id="圆角矩形_5_拷贝" data-name="圆角矩形 5 拷贝" class="cls-3" d="M390.493,6210.08h38.693a1.015,1.015,0,1,1,0,2.03H390.493A1.015,1.015,0,1,1,390.493,6210.08Z" transform="translate(-343 -6135.66)"/>
    <path id="圆角矩形_5_拷贝_2" data-name="圆角矩形 5 拷贝 2" class="cls-3" d="M410.179,6192.47a1.015,1.015,0,0,1,1.018,1.02v43.34a1.018,1.018,0,0,1-2.036,0v-43.34A1.014,1.014,0,0,1,410.179,6192.47Z" transform="translate(-343 -6135.66)"/>
    <path id="圆角矩形_5_拷贝_3" data-name="圆角矩形 5 拷贝 3" class="cls-3" d="M389.644,6176.3L405,6191.62a1.018,1.018,0,1,1-1.44,1.44L388.2,6177.73A1.015,1.015,0,1,1,389.644,6176.3Z" transform="translate(-343 -6135.66)"/>
    <path id="圆角矩形_5_拷贝_5" data-name="圆角矩形 5 拷贝 5" class="cls-3" d="M413.319,6191.62l15.358-15.32a1.015,1.015,0,1,1,1.44,1.43l-15.359,15.33A1.018,1.018,0,0,1,413.319,6191.62Z" transform="translate(-343 -6135.66)"/>
  </g>
</svg>
