<?xml version="1.0" encoding="utf-8"?>
<!-- Generator: Adobe Illustrator 22.0.0, SVG Export Plug-In . SVG Version: 6.00 Build 0)  -->
<svg version="1.1" id="图层_1" xmlns="http://www.w3.org/2000/svg" xmlns:xlink="http://www.w3.org/1999/xlink" x="0px" y="0px"
	 viewBox="0 0 200 200" style="enable-background:new 0 0 200 200;" xml:space="preserve">
<style type="text/css">
	.st0{fill:#999999;}
</style>
<path class="st0" d="M171.8,49.8c-19.9-28.5-53.8-41.5-86-36.2c-12.5,2.1-24.8,6.9-35.9,14.6c-39.6,27.7-49.2,82.4-21.6,122
	c2,2.9,5.9,3.6,8.8,1.6c2.8-2,3.5-5.9,1.6-8.8C14.9,109,23.2,62.2,57,38.5C90.9,14.8,137.7,23.1,161.4,57
	c23.7,33.9,15.4,80.7-18.5,104.4c-23.1,16.2-52.9,18-77.9,4.9c-3.1-1.6-6.9-0.4-8.5,2.6c-1.6,3.1-0.4,6.9,2.6,8.5
	c29.2,15.3,64,13.1,91-5.7C189.8,144,199.4,89.3,171.8,49.8z"/>
<path class="st0" d="M116,105.7c7.9-6.6,11.8-11.8,14.3-15.6c2.4-3.8,3.6-7.9,3.6-12.2c0-7.7-2-14.5-8.6-20.3
	c-6.6-5.8-14.2-8.7-25.4-8.7c-10.6,0-17.9,2.9-24.4,8.7c-3.4,3-6,6.3-7.7,10c-2.5,5.3,0.3,10.3,5.9,11.9l1.1,0.2
	c3,0.4,5.2-0.9,7.5-5.1c1.2-2.2,4.1-5,6.1-6.7c3.3-2.8,7.4-4.2,12.4-4.2c5.1,0,9.2,1.4,12.2,4.1c3,2.7,4.5,5.9,4.5,9.7
	c0,2.7-0.9,5.2-2.6,7.5c-1.1,1.4-4.5,4.5-10.2,9.1c-5.7,4.6-9.5,8.8-11.3,12.4c-1.9,3.7-2.5,6.1-2.5,11.8c0,5.4,4.1,7,8.1,7
	c5.4,0,7.7-3.2,8.4-7.5c0.2-1.5,0.6-2.8,1-3.7C109.3,111.8,111.8,109.1,116,105.7z"/>
<path class="st0" d="M100.3,131.8L100.3,131.8c-5.4,0-9.7,4.4-9.7,9.7c0,5.8,4,9.7,9.7,9.7c5.4,0,9.7-4.4,9.7-9.7v0
	C110,136.1,105.7,131.8,100.3,131.8z"/>
</svg>
