<?xml version="1.0" encoding="utf-8"?>
<!-- Generator: Adobe Illustrator 22.0.0, SVG Export Plug-In . SVG Version: 6.00 Build 0)  -->
<svg version="1.1" id="制造业" xmlns="http://www.w3.org/2000/svg" xmlns:xlink="http://www.w3.org/1999/xlink" x="0px" y="0px"
	 viewBox="0 0 80.7 81.4" style="enable-background:new 0 0 80.7 81.4;" xml:space="preserve">
<style type="text/css">
	.st0{fill:none;stroke:#962862;stroke-width:1.6;}
	.st1{fill:none;stroke:#962862;stroke-width:2;stroke-linecap:round;}
	.st2{fill:none;stroke:#962862;}
	.st3{fill:#962862;}
	.st4{fill:none;stroke:#962862;stroke-miterlimit:10;}
</style>
<path id="椭圆_11" class="st0" d="M61.9,8.3c18.2,11.8,23.5,36.1,11.7,54.3c-7.3,11.3-19.8,18.1-33.3,18c-6.4,0-12.6-1.5-18.3-4.4
	 M12.1,68.8c-15.2-15.5-15-40.3,0.4-55.5C19.9,5.9,29.9,1.9,40.3,2c3.4,0,6.7,0.4,10,1.3"/>
<path id="形状_6" class="st1" d="M48.7,1l2.4,3l-3.7,1.2"/>
<path id="形状_6_拷贝" class="st1" d="M25.8,74l-3.9,0.6l1.8,3.3"/>
<path class="st0" d="M32,33.8"/>
<g>
	<g>
		<g>
			<g>
				<path class="st2" d="M53.4,17.7h-2.8h-3.7H29.1c-2.3,0-4.2,1.9-4.2,4.2V28c0,2.3,1.9,4.2,4.2,4.2h18.3c0.6,0,0.8-0.7,0.4-1.1
					c-0.9-0.8-1.4-1.9-1.4-3.1v-1.3c0.1,0,0.3,0,0.4,0h6.5c1.4,0,2.5-1.1,2.5-2.5v-4C55.9,18.9,54.8,17.7,53.4,17.7z"/>
				<path class="st2" d="M46.5,28v-6.1c0-2.3,1.9-4.2,4.2-4.2H29.1c-2.3,0-4.2,1.9-4.2,4.2V28c0,2.3,1.9,4.2,4.2,4.2h18.5
					c0.5,0,0.7-0.6,0.4-0.9C47.1,30.5,46.5,29.3,46.5,28z"/>
			</g>
			<path class="st2" d="M55.9,21.9v-1.7c0-1.4-1.1-2.5-2.5-2.5h-2.8h-3.7H29.1c-2.3,0-4.2,1.9-4.2,4.2V28c0,2.3,1.9,4.2,4.2,4.2
				h18.5c0.5,0,0.8-0.6,0.4-1c-0.9-0.8-1.5-1.9-1.5-3.2v-1.3c0.1,0,0.3,0,0.4,0h6.5c0,0,0.1,0,0.1,0v0h5.6c1.4,0,2.5-1.1,2.5-2.5v0
				c0-1.3-1-2.3-2.3-2.3H55.9z"/>
		</g>
		<path class="st3" d="M31.4,24h-1.6c-0.4,0-0.7-0.3-0.7-0.7v0c0-0.4,0.3-0.7,0.7-0.7h1.6c0.4,0,0.7,0.3,0.7,0.7v0
			C32,23.6,31.7,24,31.4,24z"/>
		<path class="st3" d="M36.8,24h-1.6c-0.4,0-0.7-0.3-0.7-0.7v0c0-0.4,0.3-0.7,0.7-0.7h1.6c0.4,0,0.7,0.3,0.7,0.7v0
			C37.5,23.6,37.2,24,36.8,24z"/>
		<path class="st3" d="M42.1,24h-1.6c-0.4,0-0.7-0.3-0.7-0.7v0c0-0.4,0.3-0.7,0.7-0.7h1.6c0.4,0,0.7,0.3,0.7,0.7v0
			C42.8,23.6,42.4,24,42.1,24z"/>
		<path class="st3" d="M31.4,27.3h-1.6c-0.4,0-0.7-0.3-0.7-0.7l0,0c0-0.4,0.3-0.7,0.7-0.7h1.6c0.4,0,0.7,0.3,0.7,0.7l0,0
			C32,27,31.7,27.3,31.4,27.3z"/>
		<path class="st3" d="M36.8,27.3h-1.6c-0.4,0-0.7-0.3-0.7-0.7l0,0c0-0.4,0.3-0.7,0.7-0.7h1.6c0.4,0,0.7,0.3,0.7,0.7l0,0
			C37.5,27,37.2,27.3,36.8,27.3z"/>
		<path class="st3" d="M42.1,27.3h-1.6c-0.4,0-0.7-0.3-0.7-0.7l0,0c0-0.4,0.3-0.7,0.7-0.7h1.6c0.4,0,0.7,0.3,0.7,0.7l0,0
			C42.8,27,42.4,27.3,42.1,27.3z"/>
	</g>
	<polygon class="st2" points="22.6,36.9 22.6,33.7 50.6,33.7 50.6,36.9 38.8,40.7 38.8,48 35.2,50 35.2,40.7 	"/>
	<g>
		<circle class="st4" cx="20.8" cy="54.8" r="1.8"/>
		<circle class="st4" cx="32.3" cy="61.9" r="1.8"/>
		<circle class="st4" cx="44.9" cy="50.7" r="1.8"/>
		<circle class="st4" cx="54.8" cy="55.3" r="1.8"/>
		<line class="st4" x1="22.1" y1="55.8" x2="30.8" y2="61.5"/>
		<line class="st4" x1="34.1" y1="61.9" x2="43.9" y2="52.2"/>
		<line class="st4" x1="46.4" y1="51.7" x2="53" y2="55.3"/>
	</g>
</g>
</svg>
