<?xml version="1.0" encoding="utf-8"?>
<!-- Generator: Adobe Illustrator 22.0.0, SVG Export Plug-In . SVG Version: 6.00 Build 0)  -->
<svg version="1.1" id="运营商" xmlns="http://www.w3.org/2000/svg" xmlns:xlink="http://www.w3.org/1999/xlink" x="0px" y="0px"
	 viewBox="0 0 80.6 81.2" style="enable-background:new 0 0 80.6 81.2;" xml:space="preserve">
<style type="text/css">
	.st0{fill:none;stroke:#962862;stroke-width:1.6;}
	.st1{fill:none;stroke:#962862;stroke-width:2;stroke-linecap:round;}
</style>
<path id="椭圆_11" class="st0" d="M61.8,8.3C80,20,85.3,44.3,73.6,62.4c-7.3,11.3-19.8,18.1-33.3,18c-6.4,0-12.6-1.5-18.2-4.4
	 M12.1,68.6C4.8,61.3,0.8,51.5,0.8,41.2C0.9,19.5,18.6,1.9,40.3,2c0,0,0,0,0,0c3.4,0,6.7,0.4,10,1.2"/>
<path id="形状_6" class="st1" d="M48.7,1l2.5,3l-3.7,1.2"/>
<path id="形状_6_拷贝" class="st1" d="M25.8,73.8l-3.9,0.6l1.8,3.3"/>
<g>
	<path class="st1" d="M56.9,64V51.9c0-4.8-3.2-8.9-7.5-10.3c3.3-2.7,5.5-6.8,5.5-11.4c0-8.1-6.5-14.6-14.6-14.6s-14.6,6.5-14.6,14.6
		c0,4.6,2.1,8.7,5.5,11.4c-4.3,1.4-7.5,5.5-7.5,10.3V64"/>
	<line class="st1" x1="40.3" y1="43.3" x2="40.3" y2="64"/>
</g>
</svg>
