<?xml version="1.0" encoding="utf-8"?>
<!-- Generator: Adobe Illustrator 22.0.0, SVG Export Plug-In . SVG Version: 6.00 Build 0)  -->
<svg version="1.1" id="图层_1" xmlns="http://www.w3.org/2000/svg" xmlns:xlink="http://www.w3.org/1999/xlink" x="0px" y="0px"
	 viewBox="0 0 200 200" style="enable-background:new 0 0 200 200;" xml:space="preserve">
<style type="text/css">
	.st0{fill:#999999;}
</style>
<path class="st0" d="M145.6,200c-12.8,0-29.3-8.6-40.9-15.8c-15.5-9.7-32.2-23-47.1-37.6l-0.1-0.1l-4.7-4.8
	c-14.5-15-27.7-31.9-37.3-47.5C8.5,82.5,0,65.9,0,53c0-13.8,9.8-28.5,14-34.1C17.3,14.4,28.7,0,38.5,0c4,0,8.3,2.6,14,8.6
	c5,5.2,9.8,11.8,13,16.3c4.2,6.1,8.1,12.5,11,18c4.7,8.9,5.2,12.7,5.2,14.8c0,4.2-2.2,7.9-6.5,10.9c-2.8,2-6.3,3.5-9.5,4.9
	c-2.2,1-5.8,2.5-7.1,3.6c0.5,2,2.5,6.9,8.1,15.2c5.2,7.7,11.9,16.1,18,22.4c6.2,6.1,14.5,12.9,22.2,18.2c8.2,5.6,13,7.7,15,8.2
	c1.1-1.4,2.6-5,3.6-7.2c1.4-3.3,2.9-6.8,4.9-9.6c3-4.4,6.6-6.6,10.8-6.6c2.1,0,5.9,0.5,14.7,5.2c5.4,2.9,11.8,6.8,17.8,11.1
	c4.5,3.2,10.9,8,16.1,13.1c5.9,5.7,8.5,10.1,8.5,14.1c0,9.8-14.3,21.4-18.6,24.7C173.8,190.1,159.3,200,145.6,200L145.6,200
	 M65.9,138.1c14.2,14,30.2,26.8,45,36c14.4,8.9,27,14.1,34.7,14.1c6.9,0,16.7-4.2,26.2-11.3c4.2-3.1,8-6.6,10.7-9.8
	c2.6-3,3.5-4.9,3.7-5.7c-1-2.1-6.9-8.9-20.6-18.4c-5.4-3.8-11-7.2-15.7-9.7c-5.9-3.1-8.4-3.7-9-3.8c-0.2,0.2-0.9,0.7-1.8,2.4
	c-1.1,1.9-2.2,4.3-3.2,6.7c-1.3,2.9-2.6,6-4.2,8.4c-2.6,4-5.8,6-9.5,6c-0.1,0-0.1,0-0.2,0c-1.8,0-7.3-0.2-22.1-10.4
	C91.9,137,83,129.7,76.3,123l-0.1-0.1c-6.5-6.8-13.8-15.8-19.4-24c-10.1-15-10.2-20.5-10.3-22.3c-0.1-3.8,1.9-7.1,5.9-9.7
	c2.4-1.6,5.5-3,8.4-4.2c2.4-1,4.8-2.1,6.6-3.2c1.6-1,2.2-1.6,2.3-1.9c-0.1-0.6-0.6-3.1-3.7-9.1c-2.5-4.8-5.9-10.4-9.6-15.8
	C47,18.8,40.4,12.9,38.3,11.9c-0.8,0.2-2.7,1.2-5.7,3.8c-3.2,2.8-6.6,6.6-9.7,10.8C15.9,36.1,11.7,46,11.7,53
	c0,7.8,5.1,20.6,13.9,35.1c9.1,14.9,21.8,31.1,35.6,45.5L65.9,138.1 M135.5,95.8c-2,0-3.8-1.5-4.2-3.6c-1-6-4.5-11.2-9.7-14.7
	c-5.3-3.5-11.7-4.8-18.2-3.7c-2.3,0.4-4.6-1.2-5-3.5c-0.4-2.4,1.1-4.6,3.5-5c8.6-1.5,17.3,0.2,24.4,5c7.2,4.8,12,12,13.4,20.4
	c0.4,2.4-1.1,4.6-3.5,5C136,95.7,135.7,95.8,135.5,95.8L135.5,95.8 M161.3,84.6c-2,0-3.8-1.5-4.2-3.6c-2-11.7-8.7-21.8-18.8-28.5
	c-10.1-6.8-22.5-9.3-34.9-7.1c-2.3,0.4-4.6-1.2-5-3.5c-0.4-2.4,1.1-4.6,3.5-5c14.5-2.6,29.1,0.4,41.1,8.4
	c12.1,8,20.1,20.2,22.5,34.2c0.4,2.4-1.1,4.6-3.5,5C161.8,84.6,161.5,84.6,161.3,84.6L161.3,84.6 M195.7,81.4c-2,0-3.8-1.5-4.2-3.6
	c-3.5-19.9-14.8-37.2-32-48.6c-17.2-11.5-38.3-15.8-59.3-12c-2.3,0.4-4.6-1.2-5-3.5c-0.4-2.4,1.1-4.6,3.5-5
	c23.1-4.1,46.4,0.6,65.5,13.3C183.4,34.7,196,54,199.9,76.3c0.4,2.4-1.1,4.6-3.5,5C196.2,81.3,196,81.4,195.7,81.4L195.7,81.4"/>
</svg>
